<?xml version="1.0" encoding="UTF-8"?>
<svg id="uuid-091ef21e-b33b-469a-9b88-3c0779e45304" data-name="Capa 1" xmlns="http://www.w3.org/2000/svg" width="2055.93" height="1960" viewBox="0 0 2055.93 1960">
  <defs>
    <style>
      .uuid-4659d71a-1578-4aaf-be9f-bf7a3a632848 {
        font-family: rivoluzione, rivoluzione;
        font-size: 1277.15px;
      }

      .uuid-4659d71a-1578-4aaf-be9f-bf7a3a632848, .uuid-d230c8ae-a97d-40ec-adcc-ab2d13ff5033 {
        fill: #9fff15;
      }

      .uuid-53aaf6dc-c89d-449c-9d0a-2d6e45d30ff0 {
        fill: #00353f;
      }

      .uuid-9e5092b7-9972-4f14-b471-19d130b32127 {
        letter-spacing: -.01em;
      }

      .uuid-47455994-90de-4108-b39e-cd3f7e07b71e {
        letter-spacing: 0em;
      }

      .uuid-d230c8ae-a97d-40ec-adcc-ab2d13ff5033 {
        font-family: Scribouille, Scribouille;
        font-size: 250px;
        opacity: .13;
      }

      .uuid-7e25a276-645d-4c58-b766-6c829814f208 {
        letter-spacing: -.02em;
      }
    </style>
  </defs>
  <g>
    <path class="uuid-53aaf6dc-c89d-449c-9d0a-2d6e45d30ff0" d="M1014.38,1959.5c-132.23,0-260.51-25.9-381.27-76.97-116.64-49.33-221.39-119.96-311.35-209.92-89.96-89.96-160.58-194.71-209.92-311.35-51.08-120.76-76.97-249.03-76.97-381.27s25.9-260.51,76.97-381.27c49.33-116.64,119.96-221.39,209.92-311.35,89.96-89.96,194.71-160.58,311.35-209.92C753.87,26.4,882.15,.5,1014.38,.5s260.51,25.9,381.27,76.97c116.64,49.33,221.39,119.96,311.35,209.92,89.96,89.96,160.58,194.71,209.92,311.35,51.08,120.76,76.97,249.03,76.97,381.27s-25.9,260.51-76.97,381.27c-49.33,116.64-119.96,221.39-209.92,311.35s-194.71,160.58-311.35,209.92c-120.76,51.08-249.03,76.97-381.27,76.97Z"/>
    <path d="M1014.38,1c66.42,0,132.81,6.69,197.3,19.89,62.86,12.86,124.69,32.05,183.77,57.04,58.01,24.54,113.96,54.9,166.3,90.26,51.84,35.02,100.59,75.24,144.89,119.55s84.52,93.05,119.55,144.89c35.36,52.34,65.73,108.29,90.26,166.3,24.99,59.08,44.18,120.91,57.04,183.77,13.2,64.5,19.89,130.88,19.89,197.3s-6.69,132.81-19.89,197.3c-12.86,62.86-32.06,124.69-57.04,183.77-24.54,58.01-54.9,113.96-90.26,166.3-35.02,51.84-75.24,100.59-119.55,144.89s-93.05,84.52-144.89,119.55c-52.34,35.36-108.29,65.73-166.3,90.26-59.08,24.99-120.91,44.18-183.77,57.04-64.5,13.2-130.88,19.89-197.3,19.89s-132.81-6.69-197.3-19.89c-62.86-12.86-124.69-32.06-183.77-57.04-58.01-24.54-113.96-54.9-166.3-90.26-51.84-35.02-100.59-75.24-144.89-119.55s-84.52-93.05-119.55-144.89c-35.36-52.34-65.73-108.29-90.26-166.3-24.99-59.08-44.18-120.91-57.04-183.77-13.2-64.5-19.89-130.88-19.89-197.3s6.69-132.81,19.89-197.3c12.86-62.86,32.05-124.69,57.04-183.77,24.54-58.01,54.9-113.96,90.26-166.3,35.02-51.84,75.24-100.59,119.55-144.89s93.05-84.52,144.89-119.55c52.34-35.36,108.29-65.73,166.3-90.26,59.08-24.99,120.91-44.18,183.77-57.04C881.57,7.69,947.95,1,1014.38,1m0-1C473.14,0,34.38,438.76,34.38,980s438.76,980,980,980,980-438.76,980-980S1555.62,0,1014.38,0h0Z"/>
  </g>
  <text class="uuid-4659d71a-1578-4aaf-be9f-bf7a3a632848" transform="translate(92.92 1352.15) scale(.93 1)"><tspan x="0" y="0">Ynv</tspan></text>
  <text class="uuid-d230c8ae-a97d-40ec-adcc-ab2d13ff5033" transform="translate(307.02 1614.27) scale(.93 1)"><tspan x="0" y="0">c</tspan><tspan class="uuid-9e5092b7-9972-4f14-b471-19d130b32127" x="115.97" y="0">y</tspan><tspan class="uuid-47455994-90de-4108-b39e-cd3f7e07b71e" x="233.7" y="0">be</tspan><tspan class="uuid-7e25a276-645d-4c58-b766-6c829814f208" x="508.36" y="0">r</tspan><tspan class="uuid-47455994-90de-4108-b39e-cd3f7e07b71e" x="604.19" y="0">security</tspan></text>
</svg>